<?xml version="1.0" encoding="UTF-8"?>
<!-- Generated by Pixelmator Pro 2.4.2 -->
<svg width="72" height="72" viewBox="0 0 72 66" xmlns="http://www.w3.org/2000/svg" xmlns:xlink="http://www.w3.org/1999/xlink">
    <g id="Group">
        <path id="Path" fill="#000000" stroke="none" opacity="0.15" d="M 52.5 9.560001 L 30.5 9.560001 C 19.467981 9.592949 10.532948 18.527981 10.5 29.560001 L 10.5 35.559998 C 10.528517 44.085716 15.942986 51.661964 24 54.450001 L 24 66 L 34.459999 55.560001 L 52.459999 55.560001 C 63.49202 55.527054 72.427055 46.592018 72.459999 35.559998 L 72.459999 29.560001 C 72.427185 18.543518 63.516396 9.614868 52.5 9.560001 Z"/>
        <path id="path1" fill="none" stroke="#4d75a2" stroke-width="5" stroke-linecap="round" stroke-linejoin="round" d="M 44.5 1.559998 L 22.5 1.559998 C 11.467981 1.592949 2.532948 10.527981 2.5 21.560001 L 2.5 27.560001 C 2.528517 36.085716 7.942987 43.661964 16 46.449997 L 16 58 L 26.459999 47.559998 L 44.459999 47.559998 C 55.49202 47.527054 64.427055 38.592018 64.459999 27.560001 L 64.459999 21.560001 C 64.427185 10.543518 55.516396 1.614868 44.5 1.559998 Z"/>
    </g>
</svg>
