<?xml version="1.0" standalone="no"?>
<!DOCTYPE svg PUBLIC "-//W3C//DTD SVG 20010904//EN"
 "http://www.w3.org/TR/2001/REC-SVG-20010904/DTD/svg10.dtd">
<svg version="1.0" xmlns="http://www.w3.org/2000/svg"
 width="260.000000pt" height="260.000000pt" viewBox="0 0 260.000000 260.000000"
 preserveAspectRatio="xMidYMid meet">
<metadata>
Created by potrace 1.14, written by Peter Selinger 2001-2017
</metadata>
<g transform="translate(0.000000,260.000000) scale(0.100000,-0.100000)"
fill="#000000" stroke="none">
<path d="M887 2415 c-99 -34 -146 -89 -198 -230 -18 -49 -35 -93 -38 -97 -3
-3 -94 -8 -201 -10 -179 -3 -199 -6 -244 -27 -68 -32 -139 -101 -173 -169
l-28 -57 -3 -681 c-2 -610 0 -685 14 -730 38 -111 131 -200 242 -228 66 -18
2038 -16 2098 2 59 17 142 80 181 136 63 92 62 72 60 821 l-2 680 -28 55 c-37
72 -96 131 -165 166 -56 29 -60 29 -252 32 -107 2 -198 7 -201 10 -3 4 -23 53
-43 108 -44 118 -74 158 -147 199 l-54 30 -390 2 c-299 1 -399 -2 -428 -12z
m582 -704 c153 -43 304 -170 376 -317 98 -200 73 -460 -59 -629 -80 -102 -209
-192 -320 -223 -73 -20 -258 -22 -326 -3 -350 99 -539 489 -398 826 66 160
226 301 389 345 102 28 238 28 338 1z"/>
<path d="M1205 1506 c-106 -25 -214 -117 -262 -224 -21 -46 -26 -73 -27 -142
-1 -47 2 -98 6 -113 24 -96 114 -204 208 -250 190 -92 429 -10 520 178 27 56
32 76 36 161 5 110 -25 191 -99 272 -100 107 -239 151 -382 118z"/>
</g>
</svg>
